<svg xmlns="http://www.w3.org/2000/svg" width="800" height="600" viewBox="0 0 800 600" role="img" aria-label="Sample image">
<defs>
<linearGradient id="g" x1="0" y1="0" x2="1" y2="1"><stop offset="0" stop-color="#eadbdd"/><stop offset="1" stop-color="#ccaaae"/></linearGradient>
<pattern id="d" width="26" height="26" patternUnits="userSpaceOnUse"><circle cx="2" cy="2" r="1.3" fill="#3f263b" fill-opacity=".09"/></pattern>
</defs>
<rect width="800" height="600" fill="url(#g)"/>
<rect width="800" height="600" fill="url(#d)"/>
<circle cx="112.00000000000001" cy="96" r="312" fill="#7A1F2B" fill-opacity=".12"/>
<circle cx="720" cy="552" r="168.00000000000003" fill="#1F2A44" fill-opacity=".1"/>
<rect x="292" y="192" width="216" height="216" rx="51.839999999999996" fill="#ffffff" fill-opacity=".72" stroke="#ffffff" stroke-opacity=".9"/>
<svg x="340" y="240" xmlns="http://www.w3.org/2000/svg" width="120" height="120" viewBox="0 0 24 24" fill="none" stroke="#3f263b" stroke-width="1.4" stroke-linecap="round" stroke-linejoin="round" aria-hidden="true"><path d="M10 2v7.751a.25.25 0 00.407.195l2.28-1.834a.5.5 0 01.627 0l2.28 1.834A.25.25 0 0016 9.751V2"></path><path d="M4 19.5v-15A2.5 2.5 0 016.5 2H19a1 1 0 011 1v18a1 1 0 01-1 1H6.5a1 1 0 010-5H20"></path></svg>
<rect x="18" y="556" width="118" height="26" rx="13" fill="#ffffff" fill-opacity=".82"/>
<text x="77" y="573.5" text-anchor="middle" font-family="Arial, Helvetica, sans-serif" font-size="12" fill="#3f263b">Sample image</text>
</svg>
