<svg xmlns="http://www.w3.org/2000/svg" width="1200" height="900" viewBox="0 0 1200 900" role="img" aria-label="Sample image">
<defs>
<linearGradient id="g" x1="0" y1="0" x2="1" y2="1"><stop offset="0" stop-color="#f3e1dd"/><stop offset="1" stop-color="#e3b9ae"/></linearGradient>
<pattern id="d" width="26" height="26" patternUnits="userSpaceOnUse"><circle cx="2" cy="2" r="1.3" fill="#5e4935" fill-opacity=".09"/></pattern>
</defs>
<rect width="1200" height="900" fill="url(#g)"/>
<rect width="1200" height="900" fill="url(#d)"/>
<circle cx="168.00000000000003" cy="144" r="423" fill="#B4462B" fill-opacity=".12"/>
<circle cx="1080" cy="828" r="252.00000000000003" fill="#2F4A3A" fill-opacity=".1"/>
<rect x="438" y="288" width="324" height="324" rx="77.75999999999999" fill="#ffffff" fill-opacity=".72" stroke="#ffffff" stroke-opacity=".9"/>
<svg x="510" y="360" xmlns="http://www.w3.org/2000/svg" width="180" height="180" viewBox="0 0 24 24" fill="none" stroke="#5e4935" stroke-width="1.4" stroke-linecap="round" stroke-linejoin="round" aria-hidden="true"><path d="m11 17 2 2a1 1 0 1 0 3-3"></path><path d="m14 14 2.5 2.5a1 1 0 1 0 3-3l-3.88-3.88a3 3 0 0 0-4.24 0l-.88.88a1 1 0 1 1-3-3l2.81-2.81a5.79 5.79 0 0 1 7.06-.87l.47.28a2 2 0 0 0 1.42.25L21 4"></path><path d="m21 3 1 11h-2"></path><path d="M3 3 2 14l6.5 6.5a1 1 0 1 0 3-3"></path><path d="M3 4h8"></path></svg>
<rect x="18" y="856" width="118" height="26" rx="13" fill="#ffffff" fill-opacity=".82"/>
<text x="77" y="873.5" text-anchor="middle" font-family="Arial, Helvetica, sans-serif" font-size="12" fill="#5e4935">Sample image</text>
</svg>
