<svg xmlns="http://www.w3.org/2000/svg" width="800" height="600" viewBox="0 0 800 600" role="img" aria-label="Sample image">
<defs>
<linearGradient id="g" x1="0" y1="0" x2="1" y2="1"><stop offset="0" stop-color="#dbe3e7"/><stop offset="1" stop-color="#aabbc7"/></linearGradient>
<pattern id="d" width="26" height="26" patternUnits="userSpaceOnUse"><circle cx="2" cy="2" r="1.3" fill="#14364c" fill-opacity=".09"/></pattern>
</defs>
<rect width="800" height="600" fill="url(#g)"/>
<rect width="800" height="600" fill="url(#d)"/>
<circle cx="112.00000000000001" cy="96" r="252" fill="#1E4D6B" fill-opacity=".12"/>
<circle cx="720" cy="552" r="168.00000000000003" fill="#0F2A3B" fill-opacity=".1"/>
<rect x="292" y="192" width="216" height="216" rx="51.839999999999996" fill="#ffffff" fill-opacity=".72" stroke="#ffffff" stroke-opacity=".9"/>
<svg x="340" y="240" xmlns="http://www.w3.org/2000/svg" width="120" height="120" viewBox="0 0 24 24" fill="none" stroke="#14364c" stroke-width="1.4" stroke-linecap="round" stroke-linejoin="round" aria-hidden="true"><rect width="16" height="20" x="4" y="2" rx="2"></rect><line x1="8" x2="16" y1="6" y2="6"></line><line x1="16" x2="16" y1="14" y2="18"></line><path d="M16 10h.01"></path><path d="M12 10h.01"></path><path d="M8 10h.01"></path><path d="M12 14h.01"></path><path d="M8 14h.01"></path><path d="M12 18h.01"></path><path d="M8 18h.01"></path></svg>
<rect x="18" y="556" width="118" height="26" rx="13" fill="#ffffff" fill-opacity=".82"/>
<text x="77" y="573.5" text-anchor="middle" font-family="Arial, Helvetica, sans-serif" font-size="12" fill="#14364c">Sample image</text>
</svg>
