<svg xmlns="http://www.w3.org/2000/svg" width="800" height="600" viewBox="0 0 800 600" role="img" aria-label="Sample image">
<defs>
<linearGradient id="g" x1="0" y1="0" x2="1" y2="1"><stop offset="0" stop-color="#dbdfec"/><stop offset="1" stop-color="#aab4d3"/></linearGradient>
<pattern id="d" width="26" height="26" patternUnits="userSpaceOnUse"><circle cx="2" cy="2" r="1.3" fill="#142860" fill-opacity=".09"/></pattern>
</defs>
<rect width="800" height="600" fill="url(#g)"/>
<rect width="800" height="600" fill="url(#d)"/>
<circle cx="688" cy="96" r="282" fill="#1E3A8A" fill-opacity=".12"/>
<circle cx="80" cy="552" r="204.00000000000003" fill="#0F1E4A" fill-opacity=".1"/>
<rect x="292" y="192" width="216" height="216" rx="51.839999999999996" fill="#ffffff" fill-opacity=".72" stroke="#ffffff" stroke-opacity=".9"/>
<svg x="340" y="240" xmlns="http://www.w3.org/2000/svg" width="120" height="120" viewBox="0 0 24 24" fill="none" stroke="#142860" stroke-width="1.4" stroke-linecap="round" stroke-linejoin="round" aria-hidden="true"><path d="M13.4 2H6a2 2 0 0 0-2 2v16a2 2 0 0 0 2 2h12a2 2 0 0 0 2-2v-7.4"></path><path d="M2 6h4"></path><path d="M2 10h4"></path><path d="M2 14h4"></path><path d="M2 18h4"></path><path d="M21.378 5.626a1 1 0 1 0-3.004-3.004l-5.01 5.012a2 2 0 0 0-.506.854l-.837 2.87a.5.5 0 0 0 .62.62l2.87-.837a2 2 0 0 0 .854-.506z"></path></svg>
<rect x="18" y="556" width="118" height="26" rx="13" fill="#ffffff" fill-opacity=".82"/>
<text x="77" y="573.5" text-anchor="middle" font-family="Arial, Helvetica, sans-serif" font-size="12" fill="#142860">Sample image</text>
</svg>
