<svg xmlns="http://www.w3.org/2000/svg" width="800" height="600" viewBox="0 0 800 600" role="img" aria-label="Sample image">
<defs>
<linearGradient id="g" x1="0" y1="0" x2="1" y2="1"><stop offset="0" stop-color="#d8eae7"/><stop offset="1" stop-color="#a3cdc5"/></linearGradient>
<pattern id="d" width="26" height="26" patternUnits="userSpaceOnUse"><circle cx="2" cy="2" r="1.3" fill="#0c5f4f" fill-opacity=".09"/></pattern>
</defs>
<rect width="800" height="600" fill="url(#g)"/>
<rect width="800" height="600" fill="url(#d)"/>
<circle cx="112.00000000000001" cy="96" r="252" fill="#0E7C66" fill-opacity=".12"/>
<circle cx="720" cy="552" r="168.00000000000003" fill="#0B4F43" fill-opacity=".1"/>
<rect x="292" y="192" width="216" height="216" rx="51.839999999999996" fill="#ffffff" fill-opacity=".72" stroke="#ffffff" stroke-opacity=".9"/>
<svg x="340" y="240" xmlns="http://www.w3.org/2000/svg" width="120" height="120" viewBox="0 0 24 24" fill="none" stroke="#0c5f4f" stroke-width="1.4" stroke-linecap="round" stroke-linejoin="round" aria-hidden="true"><path d="M11 2v2"></path><path d="M5 2v2"></path><path d="M5 3H4a2 2 0 0 0-2 2v4a6 6 0 0 0 12 0V5a2 2 0 0 0-2-2h-1"></path><path d="M8 15a6 6 0 0 0 12 0v-3"></path><circle cx="20" cy="10" r="2"></circle></svg>
<rect x="18" y="556" width="118" height="26" rx="13" fill="#ffffff" fill-opacity=".82"/>
<text x="77" y="573.5" text-anchor="middle" font-family="Arial, Helvetica, sans-serif" font-size="12" fill="#0c5f4f">Sample image</text>
</svg>
