<svg xmlns="http://www.w3.org/2000/svg" width="1200" height="900" viewBox="0 0 1200 900" role="img" aria-label="Sample image">
<defs>
<linearGradient id="g" x1="0" y1="0" x2="1" y2="1"><stop offset="0" stop-color="#ede7e0"/><stop offset="1" stop-color="#d3c6b6"/></linearGradient>
<pattern id="d" width="26" height="26" patternUnits="userSpaceOnUse"><circle cx="2" cy="2" r="1.3" fill="#453726" fill-opacity=".09"/></pattern>
</defs>
<rect width="1200" height="900" fill="url(#g)"/>
<rect width="1200" height="900" fill="url(#d)"/>
<circle cx="1032" cy="144" r="468" fill="#8C6A3F" fill-opacity=".12"/>
<circle cx="120" cy="828" r="306" fill="#1E1B18" fill-opacity=".1"/>
<rect x="438" y="288" width="324" height="324" rx="77.75999999999999" fill="#ffffff" fill-opacity=".72" stroke="#ffffff" stroke-opacity=".9"/>
<svg x="510" y="360" xmlns="http://www.w3.org/2000/svg" width="180" height="180" viewBox="0 0 24 24" fill="none" stroke="#453726" stroke-width="1.4" stroke-linecap="round" stroke-linejoin="round" aria-hidden="true"><path d="M2 20v-8a2 2 0 0 1 2-2h16a2 2 0 0 1 2 2v8"></path><path d="M4 10V6a2 2 0 0 1 2-2h12a2 2 0 0 1 2 2v4"></path><path d="M12 4v6"></path><path d="M2 18h20"></path></svg>
<rect x="18" y="856" width="118" height="26" rx="13" fill="#ffffff" fill-opacity=".82"/>
<text x="77" y="873.5" text-anchor="middle" font-family="Arial, Helvetica, sans-serif" font-size="12" fill="#453726">Sample image</text>
</svg>
