<svg xmlns="http://www.w3.org/2000/svg" width="1200" height="900" viewBox="0 0 1200 900" role="img" aria-label="Sample image">
<defs>
<linearGradient id="g" x1="0" y1="0" x2="1" y2="1"><stop offset="0" stop-color="#f6d9de"/><stop offset="1" stop-color="#eaa4b0"/></linearGradient>
<pattern id="d" width="26" height="26" patternUnits="userSpaceOnUse"><circle cx="2" cy="2" r="1.3" fill="#4d1e3d" fill-opacity=".09"/></pattern>
</defs>
<rect width="1200" height="900" fill="url(#g)"/>
<rect width="1200" height="900" fill="url(#d)"/>
<circle cx="168.00000000000003" cy="144" r="423" fill="#C8102E" fill-opacity=".12"/>
<circle cx="1080" cy="828" r="252.00000000000003" fill="#0B2545" fill-opacity=".1"/>
<rect x="438" y="288" width="324" height="324" rx="77.75999999999999" fill="#ffffff" fill-opacity=".72" stroke="#ffffff" stroke-opacity=".9"/>
<svg x="510" y="360" xmlns="http://www.w3.org/2000/svg" width="180" height="180" viewBox="0 0 24 24" fill="none" stroke="#4d1e3d" stroke-width="1.4" stroke-linecap="round" stroke-linejoin="round" aria-hidden="true"><path d="M18 21V10a1 1 0 0 0-1-1H7a1 1 0 0 0-1 1v11"></path><path d="M22 19a2 2 0 0 1-2 2H4a2 2 0 0 1-2-2V8a2 2 0 0 1 1.132-1.803l7.95-3.974a2 2 0 0 1 1.837 0l7.948 3.974A2 2 0 0 1 22 8z"></path><path d="M6 13h12"></path><path d="M6 17h12"></path></svg>
<rect x="18" y="856" width="118" height="26" rx="13" fill="#ffffff" fill-opacity=".82"/>
<text x="77" y="873.5" text-anchor="middle" font-family="Arial, Helvetica, sans-serif" font-size="12" fill="#4d1e3d">Sample image</text>
</svg>
