<svg xmlns="http://www.w3.org/2000/svg" width="1200" height="900" viewBox="0 0 1200 900" role="img" aria-label="Sample image">
<defs>
<linearGradient id="g" x1="0" y1="0" x2="1" y2="1"><stop offset="0" stop-color="#f5e1d8"/><stop offset="1" stop-color="#e8b7a3"/></linearGradient>
<pattern id="d" width="26" height="26" patternUnits="userSpaceOnUse"><circle cx="2" cy="2" r="1.3" fill="#583128" fill-opacity=".09"/></pattern>
</defs>
<rect width="1200" height="900" fill="url(#g)"/>
<rect width="1200" height="900" fill="url(#d)"/>
<circle cx="168.00000000000003" cy="144" r="378" fill="#C2410C" fill-opacity=".12"/>
<circle cx="1080" cy="828" r="252.00000000000003" fill="#1F2937" fill-opacity=".1"/>
<rect x="438" y="288" width="324" height="324" rx="77.75999999999999" fill="#ffffff" fill-opacity=".72" stroke="#ffffff" stroke-opacity=".9"/>
<svg x="510" y="360" xmlns="http://www.w3.org/2000/svg" width="180" height="180" viewBox="0 0 24 24" fill="none" stroke="#583128" stroke-width="1.4" stroke-linecap="round" stroke-linejoin="round" aria-hidden="true"><path d="M16 10a4 4 0 0 1-8 0"></path><path d="M3.103 6.034h17.794"></path><path d="M3.4 5.467a2 2 0 0 0-.4 1.2V20a2 2 0 0 0 2 2h14a2 2 0 0 0 2-2V6.667a2 2 0 0 0-.4-1.2l-2-2.667A2 2 0 0 0 17 2H7a2 2 0 0 0-1.6.8z"></path></svg>
<rect x="18" y="856" width="118" height="26" rx="13" fill="#ffffff" fill-opacity=".82"/>
<text x="77" y="873.5" text-anchor="middle" font-family="Arial, Helvetica, sans-serif" font-size="12" fill="#583128">Sample image</text>
</svg>
