<svg xmlns="http://www.w3.org/2000/svg" width="800" height="600" viewBox="0 0 800 600" role="img" aria-label="Sample image">
<defs>
<linearGradient id="g" x1="0" y1="0" x2="1" y2="1"><stop offset="0" stop-color="#f3e3d8"/><stop offset="1" stop-color="#e3bea2"/></linearGradient>
<pattern id="d" width="26" height="26" patternUnits="userSpaceOnUse"><circle cx="2" cy="2" r="1.3" fill="#474321" fill-opacity=".09"/></pattern>
</defs>
<rect width="800" height="600" fill="url(#g)"/>
<rect width="800" height="600" fill="url(#d)"/>
<circle cx="688" cy="96" r="312" fill="#B45309" fill-opacity=".12"/>
<circle cx="80" cy="552" r="204.00000000000003" fill="#0C3B2E" fill-opacity=".1"/>
<rect x="292" y="192" width="216" height="216" rx="51.839999999999996" fill="#ffffff" fill-opacity=".72" stroke="#ffffff" stroke-opacity=".9"/>
<svg x="340" y="240" xmlns="http://www.w3.org/2000/svg" width="120" height="120" viewBox="0 0 24 24" fill="none" stroke="#474321" stroke-width="1.4" stroke-linecap="round" stroke-linejoin="round" aria-hidden="true"><circle cx="12" cy="12" r="4"></circle><path d="M12 2v2"></path><path d="M12 20v2"></path><path d="m4.93 4.93 1.41 1.41"></path><path d="m17.66 17.66 1.41 1.41"></path><path d="M2 12h2"></path><path d="M20 12h2"></path><path d="m6.34 17.66-1.41 1.41"></path><path d="m19.07 4.93-1.41 1.41"></path></svg>
<rect x="18" y="556" width="118" height="26" rx="13" fill="#ffffff" fill-opacity=".82"/>
<text x="77" y="573.5" text-anchor="middle" font-family="Arial, Helvetica, sans-serif" font-size="12" fill="#474321">Sample image</text>
</svg>
